<?xml version="1.0" standalone="no"?>
<!DOCTYPE svg PUBLIC "-//W3C//DTD SVG 20010904//EN"
 "http://www.w3.org/TR/2001/REC-SVG-20010904/DTD/svg10.dtd">
<svg version="1.0" xmlns="http://www.w3.org/2000/svg"
 width="416.000000pt" height="416.000000pt" viewBox="0 0 416.000000 416.000000"
 preserveAspectRatio="xMidYMid meet">
<metadata>
Created by potrace 1.14, written by Peter Selinger 2001-2017
</metadata>
<g transform="translate(0.000000,416.000000) scale(0.100000,-0.100000)"
fill="#000000" stroke="none">
<path d="M1847 3974 c-1 -1 -33 -5 -72 -9 -605 -58 -1160 -454 -1423 -1015
-41 -87 -106 -268 -116 -322 -2 -13 -11 -57 -19 -98 -37 -175 -41 -391 -13
-590 12 -83 19 -114 47 -217 16 -59 31 -112 32 -118 2 -5 13 -32 25 -59 25
-54 27 -71 10 -60 -7 4 -8 3 -4 -5 4 -6 11 -9 16 -6 8 5 22 -24 17 -36 -1 -3
6 -14 16 -24 10 -9 16 -24 13 -32 -3 -8 -1 -11 4 -8 6 3 10 2 10 -4 0 -5 23
-46 50 -90 28 -44 50 -83 50 -87 0 -3 7 -12 15 -21 8 -8 12 -19 9 -25 -4 -6
-2 -8 4 -4 12 7 44 -33 36 -46 -3 -4 2 -8 11 -8 11 0 15 -5 11 -15 -3 -8 0
-14 6 -12 6 1 17 -8 23 -20 7 -13 14 -21 17 -18 3 3 11 -1 18 -10 11 -13 10
-15 -1 -12 -8 2 -11 2 -6 0 4 -3 4 -10 1 -15 -4 -6 -2 -8 4 -5 13 9 42 -2 42
-15 0 -5 -5 -6 -12 -2 -7 4 -8 3 -4 -5 4 -6 11 -9 15 -7 4 3 25 -12 46 -34 34
-35 37 -41 24 -56 -13 -16 -12 -16 8 -4 18 11 24 12 37 1 9 -8 16 -20 16 -28
0 -8 5 -11 11 -8 13 9 50 -30 52 -55 1 -10 4 -17 8 -14 4 2 10 -2 12 -8 4 -9
6 -10 6 -1 1 6 -3 15 -9 18 -5 3 -10 10 -10 15 0 6 8 3 18 -5 9 -8 38 -30 65
-48 26 -18 44 -37 40 -41 -4 -4 0 -4 10 0 10 3 17 1 17 -5 0 -6 -4 -11 -10
-11 -5 0 -10 -5 -10 -12 0 -6 7 -4 18 5 20 18 34 14 26 -8 -3 -7 0 -16 5 -20
6 -3 9 -11 5 -17 -3 -5 8 -2 25 6 38 20 42 2 4 -18 -16 -8 -23 -15 -17 -16 7
0 22 9 35 19 23 19 24 19 50 0 14 -10 30 -15 34 -11 5 4 5 1 1 -6 -6 -11 -11
-11 -24 0 -9 7 -5 -2 8 -20 13 -17 26 -28 29 -23 3 4 14 7 24 5 9 -1 15 2 12
6 -3 5 -14 7 -25 5 -24 -5 -36 11 -15 19 8 3 15 1 15 -5 0 -6 4 -8 9 -4 5 3
16 -1 24 -9 8 -8 18 -12 22 -8 5 4 5 1 0 -7 -6 -10 -2 -12 16 -6 19 5 21 4 9
-5 -13 -9 -12 -10 5 -7 11 2 32 -3 47 -10 15 -7 30 -13 33 -13 8 0 7 -11 -1
-18 -4 -4 -4 -2 -1 5 5 7 -1 10 -18 8 -15 -1 -29 4 -35 14 -6 11 -9 12 -10 3
0 -8 -5 -10 -12 -6 -7 4 -10 4 -6 -1 4 -4 0 -13 -9 -20 -13 -9 -13 -14 -3 -20
8 -5 11 -4 7 1 -3 6 3 16 14 22 17 11 20 10 17 -5 -2 -14 4 -18 32 -18 26 0
38 -6 48 -25 12 -23 13 -23 9 -3 -3 16 2 27 19 38 20 13 23 13 18 0 -4 -8 -10
-15 -15 -15 -5 0 -9 -5 -9 -11 0 -8 4 -9 13 0 8 6 18 7 22 3 5 -4 5 -2 1 5 -3
6 -1 15 5 19 7 4 9 3 6 -3 -4 -6 4 -11 21 -12 58 -2 81 -5 77 -11 -2 -3 6 -12
17 -19 18 -11 20 -11 14 4 -5 14 -3 15 6 8 7 -6 21 -9 31 -8 10 2 14 -1 10 -8
-4 -7 0 -8 13 -3 10 4 21 8 24 9 8 3 9 -10 3 -33 -3 -11 -9 -17 -15 -14 -5 3
-4 12 3 20 8 10 8 14 0 14 -6 0 -11 -4 -11 -9 0 -6 -9 -8 -20 -6 -13 3 -18 0
-14 -7 4 -7 2 -8 -5 -4 -6 4 -9 12 -6 17 4 5 1 9 -5 9 -7 0 -10 -7 -6 -17 5
-15 3 -14 -10 2 -8 11 -20 19 -25 18 -5 -2 -9 2 -9 7 0 5 -3 9 -7 9 -5 -1 -10
0 -13 1 -3 1 -21 3 -40 4 -40 3 -76 -10 -84 -31 -4 -10 4 -7 23 6 32 23 52 28
33 9 -7 -7 -12 -16 -12 -22 0 -5 6 -2 13 9 10 12 16 14 21 7 4 -7 3 -12 -2
-12 -16 0 -22 -28 -7 -34 9 -3 12 0 9 8 -6 16 6 26 42 32 19 3 24 1 18 -8 -13
-21 -15 -50 -3 -43 6 4 8 13 5 20 -3 8 2 19 11 27 14 11 15 11 11 -2 -5 -14
17 -70 28 -70 2 0 0 9 -6 19 -15 29 -12 39 5 17 8 -11 15 -14 15 -8 0 7 5 12
10 12 6 0 10 -6 9 -13 -4 -34 1 -41 17 -21 14 18 15 18 8 -6 -3 -14 -3 -22 1
-17 5 4 9 17 10 29 1 12 7 24 15 26 7 3 10 0 6 -6 -3 -6 -1 -14 4 -17 7 -5 5
-11 -6 -19 -13 -10 -14 -15 -4 -21 9 -6 11 -4 5 5 -6 10 -4 12 9 7 9 -4 15 -3
12 2 -11 17 22 19 45 4 12 -9 19 -11 15 -5 -4 7 -1 12 8 12 9 0 16 5 16 11 0
5 5 7 10 4 6 -4 8 -11 5 -16 -4 -5 -1 -17 5 -26 9 -15 10 -14 4 6 l-6 24 31
-23 c18 -12 35 -20 37 -17 3 3 -7 12 -22 20 -17 9 -23 17 -16 21 7 4 24 -5 38
-19 15 -15 24 -20 21 -11 -7 19 -3 20 25 5 13 -7 18 -7 14 -1 -3 6 -2 13 4 17
5 3 10 3 11 -2 0 -4 2 -16 4 -26 2 -13 -1 -17 -11 -13 -8 3 -14 1 -14 -5 0 -6
10 -9 23 -7 12 2 21 -2 20 -7 -1 -6 7 -11 18 -11 18 0 18 2 -5 19 -23 17 -27
47 -5 47 4 0 6 -7 3 -15 -4 -8 -1 -15 6 -15 6 0 8 5 4 12 -5 7 -2 9 9 5 12 -4
14 -2 10 11 -6 14 -4 15 9 5 8 -7 19 -9 23 -5 5 4 5 -1 2 -11 -7 -19 9 -24 16
-4 4 9 6 9 6 0 1 -7 7 -13 14 -13 6 1 1 10 -12 20 -17 15 -19 20 -8 20 9 0 23
-10 31 -22 13 -18 18 -19 31 -8 12 10 19 10 27 2 15 -15 31 -15 22 0 -5 8 -1
9 12 5 18 -7 18 -7 0 8 -17 13 -17 15 -4 15 9 0 20 -5 23 -10 4 -6 11 -8 16
-5 5 4 9 0 9 -7 0 -8 5 -6 11 5 5 9 15 17 22 17 8 0 8 -3 2 -8 -14 -10 -17
-32 -5 -32 6 0 11 7 11 15 3 28 4 33 12 41 7 7 11 -9 8 -33 -1 -6 3 -14 8 -17
6 -4 8 7 6 26 -2 18 -1 27 2 20 2 -6 9 -10 13 -7 5 3 16 -5 24 -17 9 -12 16
-17 16 -11 0 7 -5 15 -10 18 -12 7 5 45 21 45 6 0 6 -6 0 -18 -15 -28 1 -45
24 -28 11 8 26 11 34 8 10 -4 13 -1 8 11 -4 11 0 15 13 14 11 -1 22 -7 24 -14
6 -15 36 -18 36 -3 0 5 -8 6 -17 3 -16 -6 -16 -5 -4 10 12 16 15 15 45 -4 l31
-21 -28 26 c-15 14 -27 26 -25 27 27 7 48 4 44 -8 -3 -8 2 -17 11 -20 9 -4 19
-1 21 5 2 7 8 9 14 6 5 -4 5 4 -2 16 -11 20 -10 22 5 17 9 -4 19 -7 21 -7 3 0
2 -5 -2 -12 -4 -7 -3 -8 4 -4 8 5 9 13 2 25 -16 32 2 32 21 1 11 -17 24 -30
31 -30 8 0 5 5 -4 11 -10 5 -18 15 -18 21 0 7 5 6 15 -2 10 -9 15 -9 15 -1 0
6 -4 11 -10 11 -5 0 -10 5 -10 10 0 13 32 9 43 -5 5 -6 7 -3 3 7 -3 10 -2 18
3 18 15 0 20 -13 11 -29 -6 -13 -4 -17 10 -17 14 0 16 3 8 13 -6 7 -7 13 -2
13 4 0 3 5 -4 12 -20 20 -13 32 8 13 19 -18 26 -11 21 19 -1 5 5 6 14 2 9 -3
20 -6 23 -6 4 0 0 -5 -8 -10 -9 -6 -10 -10 -3 -10 6 0 15 5 18 10 5 8 11 7 21
-1 12 -10 13 -9 8 5 -3 9 -11 16 -18 15 -24 -3 -37 1 -31 11 4 6 11 7 17 4 6
-4 8 -2 5 3 -4 6 0 14 9 17 11 4 15 2 12 -6 -3 -7 4 -21 14 -31 10 -9 18 -13
18 -8 0 6 -4 13 -10 16 -5 3 -10 13 -10 22 0 11 5 9 20 -8 10 -13 19 -19 20
-12 0 6 -6 13 -12 16 -7 2 -10 8 -6 12 4 4 16 2 25 -6 10 -7 15 -9 11 -5 -10
12 29 39 42 31 6 -4 7 -11 4 -17 -5 -7 -2 -8 6 -3 10 6 8 12 -9 27 -18 14 -20
18 -7 18 9 0 16 4 16 9 0 5 8 8 18 7 10 0 17 6 17 16 0 9 4 20 8 24 4 4 7 2 7
-5 0 -9 6 -8 21 3 12 8 29 12 38 9 13 -4 14 -3 1 5 -8 6 -19 8 -25 5 -5 -4 -6
-2 -2 3 10 10 69 15 63 5 -3 -4 0 -13 5 -21 7 -11 8 -7 5 12 -3 15 0 30 5 34
6 3 3 12 -8 19 -17 13 -17 14 2 11 15 -3 20 -10 18 -32 -2 -26 -1 -27 9 -10 8
14 8 24 -1 38 -14 22 -8 23 27 2 25 -15 26 -15 7 0 -11 9 -20 20 -20 24 -1 16
-26 52 -37 52 -7 0 -6 -5 2 -15 9 -11 9 -15 1 -15 -7 0 -10 -4 -6 -10 3 -5 13
-7 23 -4 14 5 14 4 2 -4 -8 -6 -18 -8 -24 -5 -5 4 -6 1 -1 -6 6 -10 3 -11 -14
-2 -24 13 -28 31 -6 31 17 0 20 16 5 25 -5 3 -10 12 -9 18 0 9 2 8 6 -1 7 -18
23 -4 16 16 -3 9 5 1 17 -18 25 -39 40 -51 52 -44 4 3 8 1 8 -5 0 -5 -5 -11
-12 -13 -8 -3 -6 -7 4 -10 12 -5 15 -1 13 18 -1 13 2 27 6 30 5 3 9 0 9 -7 0
-9 3 -9 14 0 10 8 16 9 21 1 8 -13 25 -13 25 1 0 5 -4 7 -10 4 -5 -3 -10 -1
-10 5 0 7 -9 9 -22 5 -22 -6 -22 -5 -4 9 17 14 22 13 48 0 17 -9 32 -13 35
-11 2 3 -5 8 -16 12 -23 7 -27 25 -9 43 10 10 8 16 -6 30 -11 9 -15 11 -11 3
6 -10 4 -12 -4 -7 -14 9 -11 -16 4 -26 6 -5 5 -8 -3 -8 -7 0 -11 -4 -7 -9 3
-6 -6 -8 -21 -5 -18 3 -23 1 -18 -7 5 -8 3 -9 -6 -4 -9 6 -11 4 -5 -6 7 -12 6
-12 -7 -1 -11 9 -18 10 -23 2 -3 -5 2 -10 11 -10 20 0 11 -13 -12 -16 -9 -1
-14 0 -11 3 3 2 -3 13 -14 24 -20 20 -26 45 -9 34 6 -3 10 -13 10 -21 0 -8 5
-14 11 -14 5 0 7 5 4 10 -4 6 -1 9 6 8 6 -2 14 3 17 11 2 8 0 11 -5 8 -12 -8
-53 20 -53 36 0 7 5 4 11 -6 14 -24 33 -22 19 2 -5 11 -10 26 -10 33 1 7 7 -1
14 -18 15 -33 33 -50 43 -40 4 3 -2 13 -13 21 -10 8 -15 15 -10 15 5 0 17 -7
26 -15 15 -14 19 -14 31 2 12 15 12 16 -3 10 -9 -3 -22 1 -29 9 -7 8 -18 13
-25 10 -16 -6 -12 21 6 37 12 10 12 9 3 -3 -10 -13 -8 -18 7 -28 16 -10 21 -9
30 6 11 16 11 16 6 0 -4 -13 0 -17 14 -15 11 2 26 9 33 16 10 11 8 12 -10 6
-15 -4 -23 -2 -23 5 0 6 5 8 11 4 7 -4 10 -1 7 7 -3 8 -10 13 -16 12 -6 -2
-16 7 -22 20 -11 21 -10 21 4 3 9 -11 16 -16 16 -12 0 5 7 3 15 -4 12 -10 18
-10 30 0 8 7 12 16 9 21 -3 5 0 9 5 9 6 0 11 -5 11 -11 0 -6 7 -3 16 5 8 9 19
14 24 11 5 -3 11 -1 15 5 3 5 2 10 -3 10 -6 0 -9 11 -8 24 0 14 6 22 14 19 8
-4 10 0 6 11 -3 8 -11 14 -17 13 -6 -1 -12 8 -13 21 -1 19 -1 20 3 2 4 -17 7
-19 19 -9 8 7 14 8 13 3 -3 -19 1 -34 11 -34 5 0 7 7 4 15 -7 18 12 20 23 3
13 -21 13 -42 1 -30 -17 17 -53 -5 -38 -23 8 -9 8 -15 0 -20 -6 -3 -7 -11 -4
-17 5 -7 2 -8 -6 -3 -9 5 -11 4 -6 -4 5 -7 2 -10 -6 -9 -7 2 -12 -3 -10 -10 2
-9 -2 -11 -10 -6 -21 13 -39 13 -35 1 2 -7 11 -11 20 -9 11 2 8 -6 -11 -25
-15 -15 -30 -24 -33 -19 -4 4 -8 4 -11 0 -2 -5 9 -21 24 -36 27 -26 40 -25 16
1 -11 11 -10 13 4 8 12 -4 15 -2 11 10 -3 8 0 19 8 24 21 13 29 11 22 -8 -5
-14 -3 -13 13 3 11 10 16 21 11 23 -4 1 -1 12 9 22 11 12 13 19 5 19 -7 0 -9
4 -6 10 4 6 16 4 33 -6 l27 -16 -25 22 c-17 15 -19 20 -8 16 16 -5 36 15 36
37 0 14 12 22 12 9 0 -7 5 -12 11 -12 8 0 7 6 -2 17 -12 15 -12 16 6 10 18 -7
19 -6 3 6 -10 8 -15 17 -11 20 3 4 12 2 20 -4 9 -9 13 -8 13 0 0 6 -5 11 -10
11 -6 0 -5 6 2 14 13 14 33 11 24 -3 -3 -4 1 -8 8 -8 7 0 13 6 13 13 0 7 -4
11 -8 9 -3 -3 -12 2 -18 9 -8 10 -9 16 -1 21 5 3 10 1 10 -4 0 -6 9 -3 20 6
14 13 17 20 8 30 -13 17 3 17 22 1 12 -11 12 -10 2 3 -12 16 -7 29 10 29 5 0
6 -5 2 -12 -4 -7 -3 -8 4 -4 6 4 9 13 6 21 -4 9 3 18 17 24 18 7 19 10 7 10
-21 1 -23 12 -6 29 8 8 8 15 -2 27 -7 8 -8 15 -2 15 15 0 33 -26 24 -35 -4 -5
-1 -5 6 -1 11 6 10 12 -4 27 -18 20 -6 27 13 8 8 -8 13 -7 18 2 5 7 4 10 -3 5
-6 -3 -16 2 -21 13 -16 29 -13 39 4 17 8 -11 15 -15 15 -10 0 6 -6 16 -12 23
-11 11 -8 12 12 6 21 -5 20 -3 -7 14 -33 21 -43 41 -21 41 15 0 1 13 -17 16
-19 3 -19 -6 0 -33 9 -13 11 -24 6 -28 -6 -3 -7 -13 -4 -21 5 -13 1 -15 -14
-10 -12 4 -25 1 -33 -9 -13 -16 0 -21 16 -5 6 6 15 5 24 -1 13 -9 12 -10 -2
-5 -11 3 -17 1 -15 -7 1 -7 -4 -11 -11 -9 -8 1 -11 -3 -7 -10 4 -7 -1 -4 -9 6
-9 11 -16 15 -16 10 0 -6 6 -16 13 -23 10 -11 9 -12 -2 -6 -9 5 -12 4 -7 -3 3
-6 15 -9 25 -7 14 3 18 -2 17 -21 0 -13 -5 -22 -11 -20 -5 2 -9 8 -8 14 1 5
-4 13 -12 16 -10 3 -12 0 -8 -12 4 -14 3 -13 -9 2 -15 19 -16 19 -27 -2 -14
-26 -14 -33 0 -30 6 2 14 -4 16 -12 4 -12 3 -12 -5 -2 -7 11 -10 11 -15 -3 -4
-9 -3 -13 2 -10 16 9 20 -9 5 -23 -12 -10 -14 -10 -14 2 0 10 -6 13 -16 9 -11
-4 -12 -8 -4 -13 8 -5 7 -9 -5 -13 -9 -4 -18 -1 -21 8 -3 7 -12 11 -20 8 -8
-3 -11 -9 -8 -14 3 -5 0 -9 -5 -9 -6 0 -11 4 -11 10 0 14 32 28 50 22 13 -4
13 -3 2 11 -8 9 -19 14 -27 11 -7 -3 -16 -1 -20 5 -3 7 0 8 10 5 11 -5 14 -2
9 12 -5 17 -4 17 5 2 7 -10 19 -14 32 -11 16 4 17 8 7 14 -10 7 -9 9 5 9 21 0
22 16 1 24 -21 8 -26 8 -20 -2 2 -4 0 -14 -5 -22 -7 -12 -8 -10 -6 7 4 31 12
36 35 24 15 -8 23 -7 33 5 17 20 20 56 4 50 -7 -2 -18 0 -26 5 -9 6 -4 8 18 5
21 -2 37 2 45 12 11 13 9 14 -12 8 -19 -6 -21 -5 -10 3 8 6 11 11 6 11 -6 0
-2 6 9 13 17 13 17 14 -5 20 -12 3 -19 10 -16 15 3 6 1 13 -4 15 -7 4 -6 5 1
3 6 -1 10 -6 9 -11 -2 -11 41 -28 49 -19 3 4 0 9 -7 11 -10 4 -10 8 0 20 11
14 10 15 -8 9 -15 -5 -24 -2 -28 10 -5 14 -4 15 9 4 12 -10 21 -6 49 22 19 19
42 35 50 35 9 0 13 -3 10 -6 -3 -3 -11 -6 -17 -6 -5 0 -12 -6 -15 -13 -2 -7 2
-10 11 -6 8 3 18 0 23 -7 5 -9 2 -10 -9 -6 -16 6 -45 -19 -33 -30 3 -3 6 -2 6
4 0 5 7 10 15 10 8 0 15 -3 15 -7 0 -3 7 -15 16 -26 14 -18 15 -18 4 4 -16 32
-5 59 15 42 8 -7 15 -9 15 -5 0 4 -10 15 -22 26 -13 10 -18 18 -11 19 6 0 15
-5 18 -10 5 -8 11 -8 19 -1 7 6 16 8 20 4 4 -4 4 0 0 10 -6 17 -7 17 -20 0
-16 -21 -18 -10 -4 17 9 17 8 18 -7 13 -16 -6 -16 -5 -4 10 7 9 18 14 24 10 5
-3 7 -1 4 4 -4 6 0 14 9 17 9 4 14 9 11 13 -4 3 -13 0 -22 -7 -10 -8 -15 -9
-15 -1 0 6 9 16 19 23 18 11 18 12 -3 29 -11 10 -16 18 -9 19 6 0 15 -4 18
-10 3 -5 11 -10 18 -10 6 0 2 7 -9 16 -17 14 -17 15 -1 10 11 -3 20 0 23 9 4
8 10 12 15 9 5 -3 6 2 3 10 -4 11 0 14 15 11 11 -2 23 0 25 4 3 4 -6 7 -20 7
-16 -1 -31 -11 -39 -25 -7 -13 -15 -19 -18 -14 -4 6 3 24 15 39 15 19 16 24 5
15 -10 -8 -17 -9 -17 -3 0 6 10 18 22 26 12 9 17 17 10 17 -21 2 -27 4 -39 12
-6 4 -15 2 -19 -4 -5 -8 -3 -9 7 -4 11 7 11 5 -1 -10 -12 -15 -12 -17 -1 -10
10 5 12 4 7 -4 -6 -9 -11 -9 -24 1 -13 11 -14 11 -10 -2 3 -8 12 -14 21 -14 9
1 18 -5 21 -13 4 -11 1 -13 -14 -8 -21 7 -28 -9 -8 -21 7 -5 8 -3 3 6 -5 8 -4
11 3 6 16 -10 2 -38 -15 -32 -9 4 -11 2 -7 -6 4 -6 3 -8 -3 -5 -11 7 -12 -31
-1 -48 4 -6 3 -17 -3 -25 -7 -12 -9 -10 -9 7 0 12 -4 24 -9 27 -4 3 -8 -4 -7
-17 0 -12 7 -26 14 -30 7 -5 10 -13 6 -18 -3 -6 -12 -3 -21 8 -8 10 -12 13 -9
7 3 -7 -1 -15 -10 -18 -8 -3 -12 -10 -9 -16 3 -5 1 -10 -5 -10 -7 0 -10 7 -6
15 5 14 -26 40 -36 30 -3 -3 -5 1 -5 9 0 12 3 12 22 0 18 -12 24 -12 40 0 18
13 18 14 -3 27 -12 8 -22 18 -22 23 0 4 8 2 17 -5 15 -12 16 -12 10 4 -9 23 2
47 18 41 9 -4 12 1 10 13 -2 10 -4 20 -4 23 -1 3 -6 -2 -11 -10 -6 -9 -10 -10
-10 -3 0 7 9 17 21 23 19 11 19 13 5 29 -9 10 -13 21 -9 24 3 4 2 7 -4 7 -6 0
-14 8 -17 17 -6 15 -5 15 13 -1 11 -10 18 -23 15 -27 -6 -11 10 -12 19 -2 4 4
-5 20 -20 36 -16 16 -22 27 -14 25 7 -2 16 3 19 11 3 9 0 11 -9 7 -8 -4 -6 -1
4 8 11 8 26 12 34 9 13 -5 13 -3 2 16 -8 11 -17 21 -21 21 -5 0 1 9 12 20 23
23 26 42 7 34 -8 -3 -20 3 -27 13 -12 15 -12 16 0 6 23 -21 35 -15 15 7 -10
11 -13 20 -7 20 21 0 27 3 39 19 15 21 9 25 -16 11 -14 -7 -21 -7 -21 0 0 5 8
10 18 10 13 0 14 2 4 9 -10 6 -8 10 9 14 18 5 21 9 12 18 -6 6 -10 17 -9 23 2
6 1 8 -1 4 -7 -13 -20 -9 -26 6 -4 10 -1 13 9 9 7 -3 14 0 14 6 0 10 -13 15
-32 12 -4 0 -3 11 2 25 7 19 7 31 -1 40 -8 10 -8 14 0 14 6 0 11 -4 11 -10 0
-5 5 -10 11 -10 6 0 1 17 -11 38 -12 20 -15 29 -7 19 13 -16 15 -16 21 -1 8
22 8 24 -6 22 -7 -2 -13 4 -13 12 0 8 -4 22 -9 30 -7 12 -6 13 5 3 7 -7 18
-13 24 -13 5 1 -1 10 -14 21 -21 17 -23 23 -13 40 8 13 9 19 1 19 -5 0 -7 4
-4 10 3 5 2 18 -4 27 -7 13 -5 23 7 37 16 18 16 19 0 13 -19 -7 -34 8 -18 18
5 3 10 11 10 16 0 6 -4 8 -9 4 -6 -3 -8 3 -6 15 2 11 -1 22 -6 25 -5 4 -7 11
-3 16 3 5 0 17 -7 25 -14 18 -7 26 25 30 18 2 23 -2 19 -11 -5 -16 -23 -16
-36 0 -5 6 -7 4 -4 -5 2 -8 10 -14 17 -12 7 2 10 -3 7 -12 -4 -9 -2 -18 3 -21
5 -3 7 -14 5 -25 -2 -12 0 -18 6 -15 12 8 7 -17 -6 -28 -5 -5 0 -6 11 -2 15 4
24 0 28 -11 6 -15 4 -15 -11 -3 -15 12 -16 12 -8 -1 13 -21 15 -40 4 -40 -5 0
-9 5 -9 11 0 5 -4 8 -10 4 -5 -3 -7 -12 -4 -20 4 -8 10 -13 14 -10 5 3 13 -3
19 -12 8 -14 10 -15 11 -3 0 12 2 13 9 1 6 -9 11 -10 15 -2 4 6 2 11 -4 11 -6
0 -8 5 -5 10 5 8 11 7 21 -1 8 -6 14 -7 14 -3 0 5 -9 15 -21 22 -17 11 -18 16
-8 28 10 12 9 13 -5 8 -25 -9 -19 5 7 17 19 8 18 9 -7 4 -26 -6 -28 -4 -17 9
8 9 10 23 6 33 -5 10 -9 24 -11 31 -4 19 -13 27 -21 18 -4 -4 -3 -10 2 -14 6
-4 12 -16 13 -26 3 -16 1 -18 -11 -8 -12 10 -14 27 -8 65 0 5 7 5 14 1 6 -4 9
-4 5 1 -4 4 -2 15 5 24 11 14 10 14 -5 2 -11 -8 -18 -9 -18 -3 0 6 10 18 22
26 12 9 18 16 12 16 -6 0 -23 -12 -37 -26 -22 -21 -29 -24 -47 -14 -11 6 -18
15 -15 20 3 5 1 11 -5 15 -6 4 -8 10 -5 15 3 5 1 11 -4 14 -5 4 -8 18 -5 32 3
18 1 23 -7 18 -8 -5 -9 -3 -5 5 5 7 1 20 -9 30 -11 13 -14 28 -10 47 5 22 4
25 -4 14 -7 -9 -11 -10 -11 -3 0 17 21 27 30 14 5 -9 10 -8 18 2 9 11 4 22
-22 50 -19 20 -40 37 -47 37 -11 0 -11 -3 1 -11 10 -7 11 -9 2 -7 -8 2 -13 7
-12 12 1 5 -4 12 -12 17 -7 5 -13 12 -13 16 -1 4 -6 18 -13 31 -7 12 -9 22 -5
22 4 0 0 5 -9 11 -11 6 -15 16 -11 26 4 10 2 14 -4 10 -6 -4 -14 0 -17 9 -4
10 -2 13 7 9 6 -4 2 2 -10 13 -20 17 -21 22 -8 32 8 7 15 22 14 34 -1 19 -2
19 -8 -3 -6 -21 -8 -22 -20 -7 -7 9 -20 16 -27 16 -8 0 -11 6 -7 15 3 10 0 15
-8 13 -7 -2 -13 3 -14 9 0 11 -23 42 -83 107 -9 11 -11 16 -4 12 6 -4 12 -2
12 3 0 6 -5 11 -11 11 -19 0 -100 91 -92 103 3 7 3 9 -1 5 -7 -6 -39 19 -108
84 -16 16 -40 35 -53 44 -14 9 -22 21 -18 27 3 5 1 7 -4 4 -6 -4 -22 4 -37 18
-15 13 -29 24 -31 24 -15 1 -74 49 -67 56 4 5 2 5 -5 2 -6 -4 -19 0 -27 9 -9
8 -16 13 -16 9 0 -3 -9 -1 -21 5 -20 11 -20 12 -2 33 18 22 18 22 -3 4 -20
-16 -23 -16 -90 16 -107 52 -135 65 -194 86 -136 49 -278 81 -425 96 -56 6
-294 13 -298 9z m1633 -829 c7 -9 8 -15 2 -15 -5 0 -12 7 -16 15 -3 8 -4 15
-2 15 2 0 9 -7 16 -15z m167 -253 l21 -29 -29 0 c-26 0 -34 8 -30 30 0 4 -5 7
-11 8 -7 0 -4 4 7 9 11 5 20 9 21 9 0 1 10 -12 21 -27z m128 -364 c4 4 6 1 3
-7 -2 -8 -11 -17 -19 -19 -8 -3 -11 -1 -7 3 4 5 2 15 -5 24 -10 14 -10 14 4 4
9 -7 19 -9 24 -5z m19 -87 c3 -5 -1 -14 -9 -21 -11 -9 -14 -8 -12 9 1 22 12
28 21 12z m-29 -371 c3 -5 1 -10 -4 -10 -6 0 -11 5 -11 10 0 6 2 10 4 10 3 0
8 -4 11 -10z m-23 -144 c7 4 8 2 4 -4 -11 -18 -26 -14 -25 6 0 10 3 12 6 4 2
-6 10 -9 15 -6z m-5 -52 c-3 -3 -12 -4 -19 -1 -8 3 -5 6 6 6 11 1 17 -2 13 -5z
m73 -119 c0 -2 -6 -8 -13 -14 -10 -8 -14 -7 -14 2 0 8 6 14 14 14 7 0 13 -1
13 -2z m-99 -22 c8 -9 9 -14 2 -10 -12 8 -29 -27 -25 -50 2 -7 -5 -13 -15 -13
-11 0 -14 3 -7 8 6 4 10 17 9 29 -1 12 2 20 6 18 4 -3 9 2 12 9 3 8 1 17 -6
20 -8 3 -8 5 -1 5 6 1 18 -7 25 -16z m-41 -87 c0 -3 -4 -8 -10 -11 -5 -3 -10
-1 -10 4 0 6 5 11 10 11 6 0 10 -2 10 -4z m96 -33 c-10 -11 -19 -7 -22 10 -2
15 0 16 12 6 8 -6 12 -14 10 -16z m-109 -15 c-3 -8 -6 -5 -6 6 -1 11 2 17 5
13 3 -3 4 -12 1 -19z m28 -8 c3 -5 1 -10 -4 -10 -6 0 -11 5 -11 10 0 6 2 10 4
10 3 0 8 -4 11 -10z m45 -65 c11 -13 9 -15 -13 -13 -16 1 -23 7 -20 15 7 17
18 16 33 -2z m-99 -13 c-5 -9 -16 -17 -25 -18 -9 -1 -14 2 -10 7 3 5 10 6 16
3 7 -5 9 -2 6 8 -4 8 0 15 8 15 9 0 10 -5 5 -15z m8 -26 c-22 -20 -22 -20 -6
0 9 11 17 27 18 35 0 11 2 11 6 0 3 -7 -5 -23 -18 -35z m-71 -111 c-3 -3 -9 2
-12 12 -6 14 -5 15 5 6 7 -7 10 -15 7 -18z m-8 -30 c0 -5 -5 -3 -10 5 -5 8
-10 20 -10 25 0 6 5 3 10 -5 5 -8 10 -19 10 -25z m-22 -44 c-2 -19 4 -24 13
-11 9 12 10 12 7 1 -6 -22 -22 -23 -35 -3 -9 15 -8 19 2 19 8 0 14 -3 13 -6z
m-29 -14 c-2 -1 -13 -9 -24 -17 -19 -14 -19 -14 -6 3 7 9 18 17 24 17 6 0 8
-1 6 -3z m125 -5 c3 -5 -1 -9 -9 -9 -8 0 -12 4 -9 9 3 4 7 8 9 8 2 0 6 -4 9
-8z m-44 -56 c0 4 5 3 12 -4 8 -8 8 -15 -2 -27 -14 -16 -35 -21 -25 -5 3 5 0
20 -6 32 -11 21 -11 22 4 9 10 -7 17 -10 17 -5z m-140 -46 c0 -5 -4 -10 -10
-10 -5 0 -10 5 -10 10 0 6 5 10 10 10 6 0 10 -4 10 -10z m-26 -40 c-6 -6 -15
-5 -24 1 -12 9 -12 10 4 5 14 -5 17 -3 12 11 -6 15 -5 16 5 6 8 -8 10 -16 3
-23z m145 -1 c-16 -10 -23 -4 -14 10 3 6 11 8 17 5 6 -4 5 -9 -3 -15z m-37
-11 c-6 -6 -15 -8 -19 -4 -4 4 -1 11 7 16 19 12 27 3 12 -12z m-13 -18 c7 0 9
-5 6 -10 -4 -6 -12 -7 -18 -4 -7 4 -9 3 -4 -1 4 -5 1 -15 -7 -24 -8 -9 -15
-20 -15 -26 0 -5 -5 -11 -12 -14 -6 -2 -9 1 -5 7 4 6 -2 20 -12 30 -13 13 -15
22 -8 30 6 6 17 19 25 28 13 15 15 15 26 0 7 -9 18 -16 24 -16z m-75 5 c-4 -8
-8 -15 -10 -15 -2 0 -4 7 -4 15 0 8 4 15 10 15 5 0 7 -7 4 -15z m-24 -21 c0
-2 -7 -4 -15 -4 -8 0 -15 4 -15 10 0 5 7 7 15 4 8 -4 15 -8 15 -10z m-78 -36
c-8 -8 -9 -4 -5 13 4 13 8 18 11 10 2 -7 -1 -18 -6 -23z m28 -38 c0 -5 -4 -10
-10 -10 -5 0 -10 5 -10 10 0 6 5 10 10 10 6 0 10 -4 10 -10z m84 -6 c8 -3 12
-12 9 -20 -3 -8 -9 -11 -14 -8 -6 3 -18 0 -27 -8 -15 -12 -16 -11 -4 4 8 9 11
22 7 28 -7 11 5 13 29 4z m-114 -8 c0 -2 -7 -6 -15 -10 -8 -3 -15 -1 -15 4 0
6 7 10 15 10 8 0 15 -2 15 -4z m20 -16 c-8 -5 -19 -10 -25 -10 -5 0 -3 5 5 10
8 5 20 10 25 10 6 0 3 -5 -5 -10z m-54 -22 c1 -10 -2 -18 -8 -18 -6 0 -7 7 -4
16 4 12 2 15 -9 11 -8 -4 -17 -2 -19 2 -3 5 4 8 16 7 12 -1 22 -9 24 -18z
m-63 -31 c3 -8 2 -20 -3 -26 -5 -9 -7 -4 -7 13 0 29 2 32 10 13z m167 2 c0 -4
-5 -11 -10 -14 -6 -4 -8 -11 -5 -16 3 -5 -1 -6 -9 -3 -9 4 -26 -6 -42 -23 -19
-20 -24 -22 -16 -7 6 12 23 29 37 38 14 9 23 20 21 25 -3 4 1 8 9 8 8 0 15 -4
15 -8z m-317 -146 c-3 -7 -6 -13 -8 -13 -2 0 -5 6 -8 13 -3 8 1 14 8 14 7 0
11 -6 8 -14z m-43 -13 c0 -5 -5 -10 -11 -10 -5 0 -7 5 -4 10 3 6 8 10 11 10 2
0 4 -4 4 -10z m44 -23 c-21 -12 -21 -12 7 -42 16 -16 29 -33 29 -37 0 -8 -23
-12 -47 -9 -6 1 -19 -9 -28 -21 -12 -18 -17 -20 -24 -10 -6 11 -10 10 -16 -5
-5 -10 -7 -24 -6 -32 2 -8 -3 -12 -11 -8 -8 2 -23 -2 -33 -9 -17 -13 -20 -12
-25 2 -6 15 -7 15 -23 -1 -10 -9 -14 -22 -10 -28 4 -7 9 -4 13 7 5 15 8 16 17
4 9 -11 8 -16 -8 -26 -12 -8 -19 -9 -19 -1 0 6 -5 7 -12 2 -7 -4 -22 -8 -34
-9 -25 -1 -85 -44 -78 -56 3 -4 1 -8 -5 -8 -5 0 -11 6 -14 13 -3 8 -12 5 -29
-11 -13 -12 -28 -19 -32 -15 -4 5 -13 0 -21 -10 -11 -16 -13 -16 -19 -1 -5 13
-9 14 -21 4 -8 -7 -13 -16 -10 -20 3 -4 -3 -7 -12 -6 -11 0 -18 -6 -18 -18 0
-11 -5 -21 -12 -23 -7 -3 -10 3 -6 15 2 11 0 23 -6 26 -6 4 -11 2 -11 -4 0 -7
-6 -10 -14 -7 -8 3 -22 -3 -31 -13 -19 -21 -55 -23 -55 -2 0 11 3 12 13 4 8
-7 18 -6 31 3 18 13 18 14 -2 12 -11 0 -18 -5 -15 -11 4 -5 1 -6 -6 -2 -9 6
-8 13 6 29 10 12 19 23 20 25 0 2 10 -1 22 -7 12 -7 22 -7 26 -2 3 5 -4 12
-15 16 -11 3 -20 10 -20 14 0 11 51 33 58 26 4 -3 -4 -8 -16 -12 -12 -3 -22
-9 -22 -14 0 -13 24 -11 38 3 9 9 15 9 24 0 17 -17 33 -15 18 3 -7 9 -10 18
-6 22 3 3 6 1 6 -7 0 -10 3 -10 16 1 15 12 14 14 -7 21 l-24 7 25 -2 c19 -2
24 -7 22 -22 -3 -19 -3 -19 15 -2 15 15 16 19 3 27 -8 5 -11 12 -7 16 3 4 15
-4 26 -17 11 -13 23 -20 27 -16 5 4 2 13 -6 18 -12 9 -11 9 5 4 33 -11 37 -11
42 1 2 7 -4 11 -13 10 -9 0 -19 5 -21 12 -3 6 0 12 7 12 6 0 8 -4 5 -10 -3 -5
-1 -10 4 -10 6 0 11 6 11 13 0 8 4 7 10 -3 5 -8 7 -24 4 -35 -5 -20 -5 -20 10
-1 14 18 14 22 1 43 -9 13 -11 23 -5 23 5 0 10 -4 10 -8 0 -11 85 -10 96 1 7
7 -6 10 -36 8 -10 0 -11 1 -2 5 6 3 12 10 12 15 0 6 -4 8 -9 4 -6 -3 -14 3
-20 13 -7 14 -6 19 4 19 7 0 11 -7 7 -15 -3 -10 -1 -13 6 -8 7 4 15 1 18 -8 3
-9 10 -16 15 -16 6 0 5 10 -1 23 -11 21 -10 21 4 3 9 -10 13 -24 9 -29 -4 -6
0 -8 11 -4 10 4 21 7 24 7 4 0 0 5 -8 11 -13 9 -13 10 1 6 10 -3 25 6 39 25
15 21 25 27 30 18 5 -9 9 -8 13 3 4 10 -2 14 -21 13 -14 -1 -27 5 -30 13 -4
11 0 12 14 6 11 -4 27 -7 37 -7 13 1 16 -4 12 -16 -3 -13 1 -18 16 -19 18 -2
19 0 7 14 -7 9 -8 14 -2 10 7 -4 18 1 25 10 12 15 12 16 -3 10 -28 -10 -46 2
-40 25 4 16 2 19 -8 13 -9 -5 -11 -4 -6 4 10 16 26 4 26 -20 0 -10 5 -19 10
-19 6 0 10 9 10 19 0 11 5 23 10 26 6 4 8 9 6 13 -2 4 8 8 22 9 25 1 26 1 6
-10z m-95 -51 c0 -7 -2 -6 -6 2 -2 6 -8 10 -12 8 -4 -3 -8 1 -8 9 0 11 4 12
14 4 7 -6 13 -17 12 -23z m-74 -39 c-8 -13 -12 -27 -8 -30 3 -4 1 -7 -5 -7
-16 0 -15 11 4 38 20 29 29 28 9 -1z m-30 4 c3 -5 2 -12 -3 -15 -5 -3 -9 1 -9
9 0 17 3 19 12 6z m46 -28 c-8 -15 -10 -15 -11 -2 0 17 10 32 18 25 2 -3 -1
-13 -7 -23z m-1848 3 c9 5 9 4 0 -6 -13 -15 -37 -4 -26 13 5 8 8 8 11 -1 2 -7
9 -9 15 -6z m1737 -46 c0 -5 -4 -10 -10 -10 -5 0 -10 5 -10 10 0 6 5 10 10 10
6 0 10 -4 10 -10z m-165 -40 c-3 -5 -12 -10 -18 -10 -7 0 -6 4 3 10 19 12 23
12 15 0z m-58 -42 c2 -17 0 -19 -7 -8 -5 8 -6 18 -4 22 8 12 10 10 11 -14z
m-1177 -17 c0 -16 -28 -33 -35 -21 -3 5 1 10 10 10 9 0 13 5 10 10 -3 6 -1 10
4 10 6 0 11 -4 11 -9z m-56 -10 c3 -5 -6 -8 -20 -8 -19 0 -22 2 -13 8 18 11
26 11 33 0z m1076 -11 c0 -5 -5 -10 -11 -10 -5 0 -7 5 -4 10 3 6 8 10 11 10 2
0 4 -4 4 -10z m48 -16 c2 -1 -10 -21 -27 -45 -16 -24 -27 -48 -24 -53 4 -5 1
-6 -5 -2 -6 3 -13 2 -17 -4 -3 -5 -14 -10 -23 -10 -13 0 -13 2 4 16 10 8 14
13 7 9 -8 -3 -11 1 -8 15 5 25 0 25 -31 1 -13 -10 -20 -22 -16 -26 4 -4 -4 -2
-18 5 -14 8 -25 14 -25 14 0 1 -13 -8 -30 -20 -33 -22 -52 -25 -63 -9 -17 24
-38 13 -33 -17 2 -13 -16 -9 -28 5 -6 8 -7 18 -3 23 4 4 0 3 -9 -4 -12 -9 -18
-9 -27 0 -9 9 -12 9 -12 0 0 -11 13 -16 33 -13 10 1 9 -17 -2 -23 -4 -3 -17 4
-27 15 -18 21 -18 21 4 39 14 12 18 21 12 25 -11 7 -39 -21 -40 -38 0 -5 -4
-6 -9 -3 -5 3 -12 -1 -15 -10 -5 -13 -9 -14 -20 -5 -8 7 -17 8 -20 3 -6 -10
-36 -9 -53 1 -6 4 -14 3 -17 -2 -8 -13 -56 -7 -66 8 -8 14 -19 14 -36 0 -7 -6
-16 -4 -24 6 -10 12 -16 13 -26 4 -8 -6 -14 -8 -14 -3 0 5 -5 2 -10 -6 -5 -8
-10 -10 -10 -4 0 6 -12 11 -27 10 -15 -1 -28 4 -28 9 0 6 -4 15 -7 21 -4 6 2
20 14 30 12 11 18 14 15 7 -4 -6 -3 -14 3 -18 5 -3 10 -1 10 5 0 13 32 9 42
-4 10 -15 40 -16 35 -2 -3 7 1 13 8 13 10 0 11 -5 4 -19 -7 -14 -6 -18 6 -18
9 0 14 4 10 9 -3 6 3 15 14 20 17 9 19 8 16 -14 -1 -17 4 -29 18 -36 15 -9 18
-8 11 2 -15 26 -12 46 8 41 10 -2 21 -9 25 -15 4 -6 0 -8 -10 -4 -9 3 -19 2
-22 -4 -4 -5 -3 -9 2 -8 4 1 10 0 13 -1 3 -1 13 -3 23 -5 21 -4 19 24 -3 43
-13 11 -11 11 8 2 12 -6 20 -16 16 -22 -4 -6 -1 -9 7 -6 8 3 13 10 12 16 -4
19 26 1 32 -19 4 -11 11 -17 16 -13 6 3 3 16 -7 32 -9 15 -11 22 -4 15 9 -9
19 -9 32 -2 11 6 22 8 25 6 2 -3 -5 -8 -16 -12 -12 -3 -21 -11 -21 -16 0 -13
6 -12 51 12 23 11 38 16 34 10 -3 -6 -1 -11 5 -11 7 0 9 -8 5 -21 -5 -14 -3
-19 3 -15 6 4 15 -2 21 -11 6 -10 10 -13 11 -8 0 6 -4 17 -10 25 -5 9 -5 19 2
27 8 10 6 13 -8 14 -12 0 -14 3 -6 6 7 3 25 -5 39 -18 20 -19 25 -20 20 -6 -4
9 -2 17 3 17 6 0 10 -7 10 -16 0 -8 5 -12 10 -9 7 4 7 14 0 28 -10 22 -10 22
6 0 21 -29 38 -30 24 -2 -7 11 -9 23 -6 27 3 3 6 -1 6 -9 0 -12 2 -11 11 1 9
13 10 13 6 -1 -7 -21 7 -42 30 -45 13 -2 19 3 20 16 2 17 -1 18 -18 10 -13 -7
-19 -7 -19 0 0 5 7 10 15 10 8 0 19 9 25 20 11 21 30 27 30 9 0 -5 -4 -8 -9
-5 -11 7 -20 -14 -14 -31 3 -7 9 -13 15 -13 6 0 7 7 4 16 -3 8 -2 12 3 9 5 -3
12 4 16 15 7 24 28 26 45 5 15 -18 5 -36 -16 -28 -11 4 -12 9 -3 19 8 10 8 14
1 14 -10 0 -32 -30 -32 -43 0 -3 8 -4 18 -3 9 0 16 -5 15 -11 -5 -22 13 -14
27 12 7 13 16 22 20 20 4 -3 13 2 19 9 8 10 9 16 1 21 -5 3 -10 1 -10 -4 0 -6
-5 -11 -11 -11 -8 0 -9 4 0 13 6 8 7 18 3 23 -4 4 2 2 13 -6 11 -8 21 -15 23
-16z m-954 -25 c3 -3 -4 -5 -14 -6 -11 -1 -22 2 -24 6 -5 8 30 8 38 0z m673
-5 c-3 -3 -12 -4 -19 -1 -8 3 -5 6 6 6 11 1 17 -2 13 -5z m-548 -38 c8 -10 8
-16 -1 -24 -10 -8 -13 -4 -14 14 -2 28 -1 29 15 10z"/>
<path d="M3616 2878 c3 -5 10 -6 15 -3 13 9 11 12 -6 12 -8 0 -12 -4 -9 -9z"/>
<path d="M3470 1115 c-8 -10 -10 -16 -5 -13 6 4 12 -3 12 -15 2 -17 0 -18 -7
-7 -5 8 -12 12 -15 9 -3 -4 1 -12 10 -19 12 -10 16 -9 21 3 3 9 4 26 2 38 -3
21 -4 22 -18 4z"/>
<path d="M3060 726 c0 -9 7 -19 15 -22 12 -5 12 -9 -3 -23 -10 -9 -12 -12 -5
-8 6 5 16 6 20 4 18 -11 11 32 -8 49 -18 16 -19 16 -19 0z"/>
<path d="M2965 640 c-3 -5 -3 -10 1 -10 4 0 0 -6 -11 -13 -13 -10 -15 -16 -6
-21 6 -4 18 -3 25 3 7 6 17 7 21 3 5 -4 5 -2 1 5 -3 6 -2 14 4 18 5 3 10 12
10 18 0 7 -4 6 -10 -3 -6 -10 -10 -11 -10 -2 0 14 -16 16 -25 2z m14 -26 c-6
-8 -17 -14 -23 -14 -6 0 -3 5 7 11 9 6 14 15 11 21 -4 7 -2 8 5 4 9 -6 9 -11
0 -22z"/>
<path d="M2882 568 c-7 -7 -12 -8 -12 -4 0 5 -7 3 -15 -4 -12 -10 -15 -10 -15
1 0 11 -2 11 -10 -1 -9 -13 -11 -13 -20 0 -8 12 -9 9 -7 -10 5 -31 -20 -52
-45 -39 -11 6 -19 5 -23 -1 -4 -6 -15 -8 -25 -5 -12 4 -24 -2 -34 -17 -9 -12
-16 -17 -16 -10 0 6 -5 12 -12 12 -6 0 -8 -3 -5 -7 8 -7 -11 -33 -25 -33 -5 0
-7 4 -3 9 13 22 -19 22 -36 0 -18 -24 -39 -31 -50 -16 -3 4 -11 2 -17 -5 -9
-11 -5 -14 16 -13 15 0 32 4 39 8 6 4 15 3 18 -3 4 -7 19 -2 39 14 26 19 36
22 46 13 10 -9 11 -9 5 2 -6 11 -2 13 18 9 24 -5 25 -3 15 16 -9 17 -8 19 3 9
16 -16 33 -17 23 -2 -4 7 3 10 19 7 15 -2 38 7 58 21 18 13 44 25 57 26 15 0
26 8 28 18 3 20 2 21 -14 5z m-277 -115 c-2 -10 -4 -19 -4 -21 -1 -2 -6 0 -11
3 -8 5 -7 11 1 21 15 18 18 18 14 -3z"/>
<path d="M1715 410 c-3 -5 1 -13 9 -16 9 -3 14 -9 12 -13 -6 -9 62 -7 71 2 3
4 15 0 25 -10 10 -9 18 -11 18 -6 0 9 -20 23 -40 27 -3 1 -15 7 -27 14 -15 8
-24 9 -28 2 -5 -8 -11 -8 -20 0 -9 8 -15 8 -20 0z m47 -22 c-7 -7 -12 -8 -12
-2 0 14 12 26 19 19 2 -3 -1 -11 -7 -17z"/>
<path d="M2440 400 c-6 -11 -8 -20 -6 -20 3 0 10 9 16 20 6 11 8 20 6 20 -3 0
-10 -9 -16 -20z"/>
<path d="M1864 395 c3 -23 12 -26 13 -5 1 11 -2 20 -7 20 -4 0 -7 -7 -6 -15z"/>
<path d="M2175 400 c-3 -5 -1 -10 5 -10 6 0 9 -4 6 -8 -3 -5 1 -9 9 -9 19 0
19 11 1 26 -10 8 -16 9 -21 1z"/>
<path d="M2343 393 c0 -8 6 -9 19 -2 10 5 18 11 18 12 0 2 -8 3 -18 3 -10 0
-19 -6 -19 -13z"/>
<path d="M1985 380 c-10 -11 -16 -20 -14 -21 23 -5 51 -5 54 0 2 4 -2 14 -9
24 -12 16 -14 16 -31 -3z m29 -8 c2 -4 -4 -8 -14 -8 -10 0 -16 4 -14 8 3 4 9
8 14 8 5 0 11 -4 14 -8z"/>
<path d="M2067 384 c-23 -12 -30 -34 -11 -34 3 0 2 5 -1 10 -3 6 -2 10 2 10 5
0 18 7 29 15 25 19 17 18 -19 -1z"/>
<path d="M2249 391 c-1 -3 -1 -9 0 -13 0 -5 -3 -8 -9 -8 -5 0 -10 5 -10 12 0
6 -2 9 -5 6 -9 -9 6 -36 18 -34 22 4 59 28 53 34 -8 8 -46 10 -47 3z m16 -10
c3 -5 2 -12 -3 -15 -5 -3 -9 1 -9 9 0 17 3 19 12 6z"/>
<path d="M1926 366 c7 -19 20 -21 30 -3 4 6 4 9 -1 5 -4 -4 -14 -3 -22 4 -11
8 -12 7 -7 -6z"/>
<path d="M3006 3678 c3 -5 10 -6 15 -3 13 9 11 12 -6 12 -8 0 -12 -4 -9 -9z"/>
<path d="M3136 3581 c-3 -5 1 -14 9 -21 8 -7 12 -17 8 -23 -4 -6 -1 -7 6 -3 9
6 9 12 -3 25 -9 10 -13 21 -9 24 3 4 4 7 0 7 -3 0 -8 -4 -11 -9z"/>
<path d="M3270 3420 c0 -5 5 -10 11 -10 5 0 7 5 4 10 -3 6 -8 10 -11 10 -2 0
-4 -4 -4 -10z"/>
<path d="M3294 3399 c-10 -17 9 -30 26 -18 12 9 12 10 -4 5 -13 -5 -17 -2 -12
9 6 17 0 20 -10 4z"/>
<path d="M3366 3365 c-11 -8 -15 -15 -9 -15 6 0 16 7 23 15 16 19 11 19 -14 0z"/>
<path d="M3433 3315 c0 -8 4 -12 9 -9 5 3 6 10 3 15 -9 13 -12 11 -12 -6z"/>
<path d="M3394 3302 c4 -7 2 -12 -3 -12 -6 0 -11 -4 -11 -10 0 -15 17 -12 23
5 4 8 1 17 -5 21 -7 4 -8 3 -4 -4z"/>
<path d="M3439 3283 c-1 -5 -1 -12 0 -17 1 -5 -6 -6 -16 -2 -17 6 -17 5 -1 -7
10 -8 16 -17 13 -20 -3 -4 -2 -5 2 -2 7 6 13 55 6 55 -1 0 -4 -3 -4 -7z"/>
<path d="M3450 3219 c0 -5 5 -7 10 -4 6 3 10 8 10 11 0 2 -4 4 -10 4 -5 0 -10
-5 -10 -11z"/>
<path d="M3473 3204 c-3 -8 -2 -19 3 -24 5 -5 9 1 9 16 0 28 -3 30 -12 8z"/>
<path d="M3530 3131 c0 -7 -4 -9 -10 -6 -5 3 -10 1 -10 -4 0 -6 4 -11 9 -11
13 0 25 20 17 27 -3 4 -6 1 -6 -6z"/>
<path d="M3600 3120 c-9 -6 -10 -10 -3 -10 6 0 15 5 18 10 8 12 4 12 -15 0z"/>
<path d="M3535 3100 c-4 -6 -2 -17 4 -24 7 -9 7 -16 -2 -25 -9 -10 -9 -12 3
-9 9 2 15 -5 16 -20 2 -32 12 -38 12 -7 0 14 -5 28 -10 31 -5 3 -4 12 3 20 6
8 9 17 5 21 -3 3 -6 1 -6 -6 0 -7 -4 -10 -10 -6 -5 3 -7 12 -3 20 6 17 -3 20
-12 5z"/>
<path d="M3586 3082 c-3 -5 1 -9 9 -9 8 0 12 4 9 9 -3 4 -7 8 -9 8 -2 0 -6 -4
-9 -8z"/>
<path d="M3590 3020 c-13 -8 -12 -10 3 -10 9 0 17 5 17 10 0 12 -1 12 -20 0z"/>
<path d="M3630 3006 c0 -2 7 -7 16 -10 8 -3 12 -2 9 4 -6 10 -25 14 -25 6z"/>
<path d="M3579 2978 c-6 -13 -8 -20 -4 -16 5 4 13 4 19 -2 7 -5 17 -5 26 0 13
9 13 10 0 11 -8 1 -19 1 -24 0 -5 -1 -6 5 -3 14 9 23 -1 18 -14 -7z"/>
<path d="M3628 2943 c6 -2 18 -2 25 0 6 3 1 5 -13 5 -14 0 -19 -2 -12 -5z"/>
<path d="M3672 2940 c2 -9 -3 -14 -12 -12 -8 2 -11 0 -7 -4 4 -4 14 -9 21 -10
14 -2 16 20 2 33 -4 4 -6 1 -4 -7z"/>
<path d="M3710 2920 c0 -5 5 -10 11 -10 5 0 7 5 4 10 -3 6 -8 10 -11 10 -2 0
-4 -4 -4 -10z"/>
<path d="M3665 2834 c-11 -8 -20 -20 -21 -27 -1 -16 27 -48 37 -42 4 3 7 -4 6
-15 -1 -11 -4 -20 -8 -20 -6 0 -5 -30 1 -37 2 -2 4 -7 5 -13 1 -5 4 -13 5 -17
1 -5 2 -12 1 -16 -1 -5 3 -6 8 -3 5 4 11 1 13 -6 3 -9 6 -9 12 0 4 7 2 12 -4
12 -6 0 -9 4 -5 10 3 5 13 7 23 4 13 -5 14 -4 4 4 -8 5 -14 13 -15 18 -1 5
-11 8 -21 6 -19 -2 -19 -2 0 20 15 18 16 20 2 9 -10 -7 -18 -9 -18 -3 0 13 25
33 33 26 4 -4 4 4 2 16 -2 12 -7 25 -11 29 -4 3 -5 -1 -1 -11 8 -23 -4 -31
-18 -11 -11 14 -10 20 4 30 15 12 14 13 -3 11 -10 -2 -21 3 -23 10 -3 6 1 10
9 9 7 -2 10 -2 5 0 -4 3 -5 9 -1 14 7 12 2 11 -21 -7z m11 -50 c2 -12 0 -14
-9 -5 -6 6 -12 18 -13 27 -2 12 0 14 9 5 6 -6 12 -18 13 -27z m54 -98 c0 -2
-6 -9 -14 -15 -11 -9 -16 -9 -22 0 -4 8 -3 9 4 5 7 -4 12 -2 12 3 0 6 5 11 10
11 6 0 10 -2 10 -4z"/>
<path d="M3755 2780 c-3 -5 -1 -10 4 -10 6 0 11 5 11 10 0 6 -2 10 -4 10 -3 0
-8 -4 -11 -10z"/>
<path d="M3730 2720 c0 -5 5 -10 10 -10 6 0 10 5 10 10 0 6 -4 10 -10 10 -5 0
-10 -4 -10 -10z"/>
<path d="M3757 2703 c-10 -10 -8 -23 4 -23 5 0 8 4 5 9 -4 5 0 12 6 14 7 3 8
6 2 6 -6 1 -14 -2 -17 -6z"/>
<path d="M3780 2600 c0 -6 7 -10 15 -10 8 0 15 2 15 4 0 2 -7 6 -15 10 -8 3
-15 1 -15 -4z"/>
<path d="M3796 2547 c3 -10 9 -15 12 -12 3 3 0 11 -7 18 -10 9 -11 8 -5 -6z"/>
<path d="M3815 2460 c-3 -6 1 -7 9 -4 18 7 21 14 7 14 -6 0 -13 -4 -16 -10z"/>
<path d="M3850 2460 c0 -5 5 -10 11 -10 5 0 7 5 4 10 -3 6 -8 10 -11 10 -2 0
-4 -4 -4 -10z"/>
<path d="M3750 2398 c0 -16 11 -22 32 -19 4 0 5 -6 2 -13 -3 -9 2 -16 13 -18
17 -3 17 -4 0 -11 -14 -5 -20 -2 -24 13 -6 22 -18 26 -28 9 -4 -6 3 -21 15
-34 20 -22 21 -25 6 -31 -16 -6 -23 -25 -8 -23 27 5 32 -2 17 -24 -8 -13 -12
-26 -9 -30 4 -3 8 -17 9 -29 4 -37 5 -39 13 -34 4 2 19 -5 32 -15 24 -20 24
-20 2 -9 -22 11 -23 10 -12 -9 8 -16 8 -26 0 -39 -10 -15 -11 -14 -7 6 3 12 1
22 -3 22 -5 0 -7 9 -5 19 3 14 -1 18 -11 14 -8 -3 -14 1 -14 11 0 9 -4 16 -10
16 -16 0 -12 -22 7 -35 9 -7 17 -21 18 -31 0 -11 4 -25 8 -31 4 -6 3 -15 -3
-18 -8 -5 -8 -11 0 -20 8 -9 8 -15 0 -20 -6 -3 -8 -11 -5 -16 6 -8 -8 -13 -27
-10 -14 2 -8 -16 11 -33 20 -18 20 -18 0 -39 -16 -18 -17 -23 -6 -41 18 -27
11 -52 -9 -35 -16 13 -19 -2 -4 -17 6 -6 5 -15 -1 -24 -9 -13 -10 -12 -5 3 3
9 1 17 -4 17 -18 0 -19 -18 -1 -34 13 -12 21 -14 26 -6 4 6 15 8 26 5 13 -5
19 -2 19 10 0 9 -7 15 -16 13 -10 -2 -19 2 -21 9 -3 8 5 10 24 8 16 -2 36 1
44 6 10 8 8 8 -10 4 l-24 -7 23 31 c12 18 20 35 16 38 -3 3 -11 -6 -17 -20 -7
-15 -15 -24 -20 -21 -4 2 -13 -4 -19 -13 -11 -17 -11 -17 -6 1 4 10 1 26 -6
34 -11 13 -10 14 6 5 14 -8 23 -5 42 14 26 26 33 43 9 23 -23 -19 -19 6 5 30
11 11 16 20 12 20 -4 0 -13 -5 -20 -12 -6 -6 -15 -9 -19 -5 -9 9 29 37 41 30
5 -4 6 -1 2 5 -4 6 -14 8 -24 5 -9 -3 -14 -3 -10 2 4 4 2 15 -5 23 -10 13 -9
15 5 9 10 -3 20 -1 24 5 4 7 3 8 -4 4 -7 -4 -12 -3 -12 2 0 5 8 12 18 14 16 5
20 23 13 57 -1 2 -8 -2 -16 -9 -18 -15 -20 1 -3 18 13 13 4 24 -27 35 -5 3 -7
8 -3 12 4 4 15 2 25 -6 9 -8 14 -9 10 -2 -4 6 -2 13 5 15 6 2 13 15 15 29 2
18 1 20 -6 9 -5 -8 -8 -17 -5 -21 2 -4 -2 -9 -10 -12 -8 -3 -17 1 -20 9 -8 22
-7 26 3 19 18 -10 23 16 7 34 -22 24 -20 30 7 25 22 -5 22 -4 1 5 -27 12 -46
38 -21 28 31 -12 30 16 -2 45 -17 15 -26 28 -19 28 6 0 23 -10 37 -22 l25 -23
-25 31 c-16 20 -32 30 -46 28 -13 -1 -27 5 -33 14 -9 16 -9 16 -10 0z m45 -71
c4 5 5 2 1 -4 -4 -7 -2 -13 3 -13 6 0 11 7 11 16 0 14 3 14 15 4 16 -13 21
-35 6 -26 -5 4 -17 3 -26 0 -15 -6 -16 -8 -2 -16 9 -5 14 -14 11 -22 -3 -7 2
-19 11 -26 8 -7 15 -18 15 -24 0 -6 -5 -4 -10 4 -10 16 -11 14 -14 -30 -1 -8
-7 -15 -15 -15 -19 0 -23 35 -5 42 12 4 12 7 -2 18 -12 8 -13 14 -6 19 15 9 3
38 -12 29 -7 -3 -6 -1 1 7 10 11 8 19 -10 39 -19 23 -19 24 -1 8 11 -9 24 -14
29 -10z m61 -247 c0 -11 -5 -19 -11 -16 -6 2 -17 -5 -24 -15 -6 -11 -16 -17
-21 -14 -6 4 -3 16 7 30 10 12 21 21 25 19 4 -2 9 0 13 6 9 14 11 13 11 -10z
m-40 -84 c-1 -8 -7 -21 -14 -29 -10 -12 -10 -16 1 -20 8 -3 13 -16 12 -29 -1
-18 -8 -23 -28 -23 -14 -1 -23 3 -21 7 3 4 12 8 20 8 8 0 12 5 9 10 -3 6 0 10
7 10 8 0 6 5 -5 11 -9 6 -15 14 -12 20 4 5 0 9 -7 9 -9 0 -9 3 2 10 8 5 16 14
16 20 3 19 4 21 13 16 5 -4 8 -12 7 -20z"/>
<path d="M3790 2246 c0 -2 7 -7 16 -10 8 -3 12 -2 9 4 -6 10 -25 14 -25 6z"/>
<path d="M3830 2390 c0 -5 5 -10 11 -10 5 0 7 5 4 10 -3 6 -8 10 -11 10 -2 0
-4 -4 -4 -10z"/>
<path d="M3867 2379 c7 -9 10 -19 6 -22 -3 -4 -1 -7 5 -7 17 0 15 16 -5 31
-16 12 -17 12 -6 -2z"/>
<path d="M3882 2298 c-7 -7 -12 -17 -12 -22 0 -6 5 -3 11 7 6 9 15 14 21 11 7
-4 8 -2 4 4 -9 15 -9 15 -24 0z"/>
<path d="M3855 2240 c3 -5 8 -10 11 -10 2 0 4 5 4 10 0 6 -5 10 -11 10 -5 0
-7 -4 -4 -10z"/>
<path d="M3870 2166 c0 -2 7 -7 16 -10 8 -3 12 -2 9 4 -6 10 -25 14 -25 6z"/>
<path d="M3870 2121 c0 -6 4 -13 10 -16 6 -3 7 1 4 9 -7 18 -14 21 -14 7z"/>
<path d="M3915 2109 c-4 -6 -5 -12 -2 -15 2 -3 7 2 10 11 7 17 1 20 -8 4z"/>
<path d="M3870 2045 c0 -7 30 -13 34 -7 3 4 -4 9 -15 9 -10 1 -19 0 -19 -2z"/>
<path d="M3855 2021 c-3 -5 0 -13 6 -17 7 -4 9 -3 5 4 -3 5 0 13 6 15 9 4 10
6 1 6 -6 1 -14 -3 -18 -8z"/>
<path d="M3870 1949 c0 -5 -5 -7 -12 -3 -7 4 -8 3 -4 -4 4 -6 13 -9 21 -6 8 4
12 10 9 15 -7 12 -14 11 -14 -2z"/>
<path d="M3879 1908 c-5 -16 -4 -46 2 -42 4 2 7 13 6 24 -1 17 -5 26 -8 18z"/>
<path d="M3870 1839 c0 -5 5 -7 10 -4 6 3 10 8 10 11 0 2 -4 4 -10 4 -5 0 -10
-5 -10 -11z"/>
<path d="M3830 1810 c-8 -5 -10 -10 -5 -10 6 0 17 5 25 10 8 5 11 10 5 10 -5
0 -17 -5 -25 -10z"/>
<path d="M3820 1778 c0 -4 4 -8 9 -8 6 0 12 4 15 8 3 5 -1 9 -9 9 -8 0 -15 -4
-15 -9z"/>
<path d="M3877 1768 c19 -21 31 -25 14 -5 -6 8 -9 16 -6 19 3 2 -2 5 -10 5
-13 0 -13 -3 2 -19z"/>
<path d="M3830 1730 c0 -5 5 -10 11 -10 5 0 7 5 4 10 -3 6 -8 10 -11 10 -2 0
-4 -4 -4 -10z"/>
<path d="M3739 1718 c-8 -16 -3 -45 7 -45 10 0 11 4 3 13 -6 7 -8 18 -4 24 3
5 4 10 1 10 -3 0 -7 -1 -7 -2z"/>
<path d="M3700 1641 c0 -5 6 -11 13 -14 8 -3 14 1 14 9 0 8 -6 14 -14 14 -7 0
-13 -4 -13 -9z"/>
<path d="M3830 1639 c0 -5 5 -7 10 -4 6 3 10 8 10 11 0 2 -4 4 -10 4 -5 0 -10
-5 -10 -11z"/>
<path d="M3870 1640 c0 -5 5 -10 11 -10 5 0 7 5 4 10 -3 6 -8 10 -11 10 -2 0
-4 -4 -4 -10z"/>
<path d="M3805 1619 c-4 -6 -5 -12 -2 -15 2 -3 7 2 10 11 7 17 1 20 -8 4z"/>
<path d="M3830 1596 c7 -7 13 -7 20 0 6 6 3 10 -10 10 -13 0 -16 -4 -10 -10z"/>
<path d="M3796 1573 c-6 -14 -5 -15 5 -6 7 7 10 15 7 18 -3 3 -9 -2 -12 -12z"/>
<path d="M3775 1540 c-3 -6 1 -7 9 -4 18 7 21 14 7 14 -6 0 -13 -4 -16 -10z"/>
<path d="M3641 1456 c-7 -8 -8 -17 -3 -19 4 -3 13 3 20 14 14 22 0 26 -17 5z"/>
<path d="M3730 1430 c6 -11 13 -20 16 -20 2 0 0 9 -6 20 -6 11 -13 20 -16 20
-2 0 0 -9 6 -20z"/>
<path d="M3755 1441 c-3 -5 -2 -12 3 -15 5 -3 9 1 9 9 0 17 -3 19 -12 6z"/>
<path d="M3673 1423 c4 -3 2 -12 -4 -19 -7 -9 -6 -14 2 -20 7 -4 15 -2 17 4 2
7 8 9 14 6 5 -3 4 3 -4 15 -7 12 -17 21 -22 21 -5 0 -6 -3 -3 -7z"/>
<path d="M3615 1376 c-18 -13 -17 -14 6 -26 13 -7 21 -9 17 -5 -4 5 -3 14 3
21 15 18 -5 26 -26 10z"/>
<path d="M3700 1376 c0 -2 7 -7 16 -10 8 -3 12 -2 9 4 -6 10 -25 14 -25 6z"/>
<path d="M3726 1318 c3 -5 10 -6 15 -3 13 9 11 12 -6 12 -8 0 -12 -4 -9 -9z"/>
<path d="M3651 1247 c2 -1 13 -9 24 -17 19 -14 19 -14 6 3 -7 9 -18 17 -24 17
-6 0 -8 -1 -6 -3z"/>
<path d="M3516 1200 c-15 -5 -16 -9 -7 -14 7 -5 18 -3 24 3 14 14 6 20 -17 11z"/>
<path d="M3656 1193 c-6 -14 -5 -15 5 -6 7 7 10 15 7 18 -3 3 -9 -2 -12 -12z"/>
<path d="M3650 1160 c0 -5 5 -10 11 -10 5 0 7 5 4 10 -3 6 -8 10 -11 10 -2 0
-4 -4 -4 -10z"/>
<path d="M3586 1125 c-18 -14 -18 -14 1 -12 11 0 20 7 20 14 0 7 -1 13 -1 13
-1 0 -9 -7 -20 -15z"/>
<path d="M3536 1045 c-3 -8 -1 -15 4 -15 6 0 10 7 10 15 0 8 -2 15 -4 15 -2 0
-6 -7 -10 -15z"/>
<path d="M3515 1001 c-3 -5 -2 -12 3 -15 5 -3 9 1 9 9 0 17 -3 19 -12 6z"/>
<path d="M3496 958 c3 -5 10 -6 15 -3 13 9 11 12 -6 12 -8 0 -12 -4 -9 -9z"/>
<path d="M3434 929 c-3 -6 0 -18 9 -26 10 -10 17 -12 22 -4 4 7 1 10 -7 9 -7
-2 -12 5 -12 15 2 20 -2 22 -12 6z"/>
<path d="M3313 911 c1 -15 4 -17 14 -9 7 5 10 14 7 19 -10 16 -23 9 -21 -10z"/>
<path d="M3400 870 c-6 -11 -9 -20 -8 -20 2 0 11 9 21 20 9 11 13 20 7 20 -5
0 -14 -9 -20 -20z"/>
<path d="M780 849 c0 -5 -4 -8 -9 -4 -5 3 -12 1 -15 -4 -4 -5 2 -8 11 -7 15 3
33 26 19 26 -3 0 -6 -5 -6 -11z"/>
<path d="M3370 851 c0 -6 4 -13 10 -16 6 -3 7 1 4 9 -7 18 -14 21 -14 7z"/>
<path d="M3240 827 c-14 -12 -21 -18 -14 -14 7 4 17 6 24 5 7 -2 14 5 15 15 4
21 5 21 -25 -6z"/>
<path d="M3310 815 c-11 -13 -10 -14 4 -9 9 3 16 10 16 15 0 13 -6 11 -20 -6z"/>
<path d="M776 793 c-6 -14 -5 -15 5 -6 7 7 10 15 7 18 -3 3 -9 -2 -12 -12z"/>
<path d="M3335 801 c-3 -5 -2 -12 3 -15 5 -3 9 1 9 9 0 17 -3 19 -12 6z"/>
<path d="M835 740 c3 -5 8 -10 11 -10 2 0 4 5 4 10 0 6 -5 10 -11 10 -5 0 -7
-4 -4 -10z"/>
<path d="M3310 739 c0 -5 5 -7 10 -4 6 3 10 8 10 11 0 2 -4 4 -10 4 -5 0 -10
-5 -10 -11z"/>
<path d="M933 719 c-2 -23 3 -25 10 -4 4 8 3 16 -1 19 -4 3 -9 -4 -9 -15z"/>
<path d="M890 721 c0 -6 4 -13 10 -16 6 -3 7 1 4 9 -7 18 -14 21 -14 7z"/>
<path d="M957 713 c-3 -5 4 -15 16 -23 21 -12 21 -12 7 6 -8 10 -15 20 -16 22
-1 2 -4 -1 -7 -5z"/>
<path d="M3210 659 c0 -5 5 -7 10 -4 6 3 10 8 10 11 0 2 -4 4 -10 4 -5 0 -10
-5 -10 -11z"/>
<path d="M1025 639 c-4 -6 -5 -12 -2 -15 2 -3 7 2 10 11 7 17 1 20 -8 4z"/>
<path d="M1137 604 c4 -10 2 -15 -3 -11 -6 3 -16 1 -24 -4 -12 -8 -11 -9 5 -7
14 2 19 -2 17 -14 -2 -10 2 -18 8 -18 6 0 8 5 4 12 -5 8 -1 9 12 5 17 -6 17
-6 3 5 -9 7 -14 18 -12 25 2 6 -1 14 -6 18 -7 4 -8 0 -4 -11z"/>
<path d="M3055 610 c-3 -6 1 -7 9 -4 18 7 21 14 7 14 -6 0 -13 -4 -16 -10z"/>
<path d="M3030 592 c0 -6 9 -12 20 -15 11 -3 20 -3 20 -1 0 2 -9 8 -20 14 -11
6 -20 7 -20 2z"/>
<path d="M1094 554 c1 -8 4 -15 7 -16 2 -2 3 -1 2 1 -2 2 2 9 7 16 7 8 5 12
-4 12 -8 0 -13 -6 -12 -13z"/>
<path d="M2990 558 c0 -3 9 -6 20 -5 11 1 20 5 20 9 0 3 -9 6 -20 5 -11 -1
-20 -5 -20 -9z"/>
<path d="M1155 540 c-3 -6 1 -7 10 -4 11 5 14 2 9 -12 -5 -15 -4 -16 4 -4 11
15 7 30 -8 30 -5 0 -12 -4 -15 -10z"/>
<path d="M1254 538 c3 -12 0 -18 -10 -18 -8 0 -12 4 -9 10 3 6 -1 7 -9 4 -28
-11 -17 -20 24 -21 22 0 40 4 40 10 0 6 -3 7 -7 4 -3 -4 -12 1 -20 11 -14 16
-14 16 -9 0z"/>
<path d="M2948 503 c7 -3 16 -2 19 1 4 3 -2 6 -13 5 -11 0 -14 -3 -6 -6z"/>
<path d="M1300 460 c-12 -7 -10 -9 7 -7 12 0 19 5 17 9 -6 10 -6 10 -24 -2z"/>
<path d="M1348 453 c7 -3 16 -2 19 1 4 3 -2 6 -13 5 -11 0 -14 -3 -6 -6z"/>
<path d="M1381 453 c-1 -6 -4 -20 -7 -30 -5 -17 -5 -17 6 0 6 10 9 23 6 30 -3
9 -5 9 -5 0z"/>
<path d="M2800 440 c-12 -7 -10 -9 8 -7 12 0 22 5 22 9 0 11 -12 10 -30 -2z"/>
<path d="M1396 407 c3 -10 9 -15 12 -12 3 3 0 11 -7 18 -10 9 -11 8 -5 -6z"/>
<path d="M1435 401 c-3 -5 0 -13 6 -17 7 -4 9 -3 5 4 -3 5 0 13 6 15 9 4 10 6
1 6 -6 1 -14 -3 -18 -8z"/>
<path d="M1526 395 c4 -8 8 -15 10 -15 2 0 4 7 4 15 0 8 -4 15 -10 15 -5 0 -7
-7 -4 -15z"/>
<path d="M2773 375 c0 -8 4 -12 9 -9 5 3 6 10 3 15 -9 13 -12 11 -12 -6z"/>
<path d="M2650 377 c0 -2 6 -10 14 -16 11 -9 16 -9 22 1 4 7 4 10 -1 6 -4 -4
-14 -3 -22 3 -7 6 -13 9 -13 6z"/>
<path d="M1566 362 c-3 -5 1 -9 9 -9 8 0 15 4 15 9 0 4 -4 8 -9 8 -6 0 -12 -4
-15 -8z"/>
<path d="M2633 355 c0 -8 4 -12 9 -9 5 3 6 10 3 15 -9 13 -12 11 -12 -6z"/>
<path d="M1630 343 c0 -5 10 -18 23 -29 l22 -19 -20 25 c-11 14 -21 27 -22 29
-2 2 -3 0 -3 -6z"/>
<path d="M2470 340 c0 -5 5 -10 10 -10 6 0 10 5 10 10 0 6 -4 10 -10 10 -5 0
-10 -4 -10 -10z"/>
<path d="M1736 325 c-3 -8 -1 -15 4 -15 6 0 10 7 10 15 0 8 -2 15 -4 15 -2 0
-6 -7 -10 -15z"/>
<path d="M1800 335 c0 -5 5 -17 10 -25 5 -8 10 -10 10 -5 0 6 -5 17 -10 25 -5
8 -10 11 -10 5z"/>
<path d="M2343 319 c2 -24 19 -33 32 -16 3 4 2 5 -2 2 -4 -3 -12 5 -19 17
l-12 23 1 -26z"/>
<path d="M2430 326 c0 -8 4 -17 9 -20 5 -4 7 3 4 14 -6 23 -13 26 -13 6z"/>
<path d="M2519 313 c-13 -16 -12 -17 4 -4 9 7 17 15 17 17 0 8 -8 3 -21 -13z"/>
<path d="M2230 311 c0 -7 -5 -9 -12 -5 -7 5 -8 3 -3 -5 5 -9 10 -10 18 -2 6 6
8 14 4 18 -4 3 -7 1 -7 -6z"/>
<path d="M1767 299 c7 -7 15 -10 18 -7 3 3 -2 9 -12 12 -14 6 -15 5 -6 -5z"/>
<path d="M2030 300 c0 -5 5 -10 10 -10 6 0 10 5 10 10 0 6 -4 10 -10 10 -5 0
-10 -4 -10 -10z"/>
<path d="M2150 300 c0 -5 5 -10 10 -10 6 0 10 5 10 10 0 6 -4 10 -10 10 -5 0
-10 -4 -10 -10z"/>
<path d="M2254 302 c3 -5 0 -13 -6 -15 -9 -4 -10 -6 -1 -6 17 -1 25 16 12 25
-7 4 -9 3 -5 -4z"/>
<path d="M2295 301 c-9 -15 15 -25 28 -12 9 9 7 10 -7 5 -13 -5 -17 -4 -12 4
4 7 5 12 2 12 -3 0 -7 -4 -11 -9z"/>
<path d="M1913 285 c0 -8 4 -15 9 -15 4 0 8 4 8 9 0 6 -4 12 -8 15 -5 3 -9 -1
-9 -9z"/>
<path d="M2070 290 c-9 -6 -10 -10 -3 -10 6 0 15 5 18 10 8 12 4 12 -15 0z"/>
<path d="M1855 280 c3 -5 8 -10 11 -10 2 0 4 5 4 10 0 6 -5 10 -11 10 -5 0 -7
-4 -4 -10z"/>
<path d="M2174 279 c-3 -6 -1 -16 5 -22 9 -9 11 -8 6 5 -4 11 0 18 12 21 15 4
16 5 1 6 -9 0 -20 -4 -24 -10z"/>
<path d="M2115 271 c-3 -5 -2 -12 3 -15 5 -3 9 1 9 9 0 17 -3 19 -12 6z"/>
<path d="M2076 258 c3 -5 10 -6 15 -3 13 9 11 12 -6 12 -8 0 -12 -4 -9 -9z"/>
</g>
</svg>
